<?xml version="1.0" encoding="UTF-8" standalone="no"?>
<svg
   viewBox="0 0 700 700"
   width="700"
   height="700"
   version="1.1"
   id="svg10"
   sodipodi:docname="logo.svg"
   inkscape:version="1.4 (e7c3feb100, 2024-10-09)"
   xmlns:inkscape="http://www.inkscape.org/namespaces/inkscape"
   xmlns:sodipodi="http://sodipodi.sourceforge.net/DTD/sodipodi-0.dtd"
   xmlns="http://www.w3.org/2000/svg"
   xmlns:svg="http://www.w3.org/2000/svg">
  <defs
     id="defs10" />
  <sodipodi:namedview
     id="namedview10"
     pagecolor="#ffffff"
     bordercolor="#000000"
     borderopacity="0.25"
     inkscape:showpageshadow="2"
     inkscape:pageopacity="0.0"
     inkscape:pagecheckerboard="false"
     inkscape:deskcolor="#d1d1d1"
     showgrid="false"
     inkscape:zoom="0.82872915"
     inkscape:cx="433.79674"
     inkscape:cy="549.03342"
     inkscape:window-width="3420"
     inkscape:window-height="1383"
     inkscape:window-x="0"
     inkscape:window-y="0"
     inkscape:window-maximized="1"
     inkscape:current-layer="svg10" />
  <g
     fill="None"
     fill-opacity="0"
     stroke="#f8f9fb"
     stroke-opacity="1"
     stroke-width="0.3"
     id="g1"
     transform="matrix(0.55558439,0,0,0.6119011,70.947829,51.296785)">
    <path
       d="M 0,1000 H 1000 V 0 H 0 V 1000 M 482,673 C 416.24,674.22 342.32,680.15 297.08,625.92 244.83,575.98 264.81,496.98 261,430 c 0.89,-63.36 65.52,-94.73 115,-117 -16.56,27.35 -44.93,49.22 -52.98,81.02 -1.97,5.19 -5.83,27.07 4.06,19.06 22.59,-15.38 49.13,-23.66 76.92,-24.08 15.27,4.86 13.74,-9.42 13,-20 0,-22.33 0,-44.67 0,-67 1.57,-9.6 -4.19,-22.29 5.25,-28.75 16.82,-16.14 33.67,-32.3 50.5,-49.5 10.4,-13.01 10.11,4.55 9.25,13.25 0,145 0,290 0,435 m 130,-47 c 15.4,-28.09 51.32,-47.09 54,-81 -23.09,13.75 -48.37,25.13 -76,26 -11.93,0.96 -3.45,19.42 -6,28 0,34.33 0,68.67 0,103 -18.5,25.52 -42.32,49.35 -64,73 -2.33,-159.5 -0.33,-320.08 -1,-480 51.34,2.33 107.09,-9.06 151.23,18.77 36.62,21.59 62.4,60.18 68.76,101.24 0.5,49.45 9.69,105.34 -22.29,145.69 -25.17,35.69 -65.97,52.22 -104.7,65.3 z"
       id="path1" />
  </g>
  <g
     fill="None"
     fill-opacity="0"
     stroke="#ea1921"
     stroke-opacity="1"
     stroke-width="0.3"
     id="g2"
     transform="translate(-150.83336,-136.35336)">
    <path
       d="m 482,672 c 0,-145 0,-290 0,-435 0.86,-8.7 1.15,-26.26 -9.25,-13.25 -16.83,17.2 -33.68,33.36 -50.5,49.5 -9.44,6.46 -3.68,19.15 -5.25,28.75 0,22.33 0,44.67 0,67 0.74,10.58 2.27,24.86 -13,20 -27.79,0.42 -54.33,8.7 -76.92,24.08 -9.89,8.01 -6.03,-13.87 -4.06,-19.06 8.05,-31.8 36.42,-53.67 52.98,-81.02 -49.48,22.27 -114.11,53.64 -115,117 3.81,66.98 -16.17,145.98 36.08,195.92 45.24,54.23 119.16,48.3 184.92,47.08 M 416,455 c 2.33,50.17 0.33,101.42 1,152 -44.45,5.38 -88.91,-30.07 -88.78,-75.22 -0.14,-44.99 44.1,-79.8 87.78,-76.78 z"
       id="path2" />
  </g>
  <g
     fill="None"
     fill-opacity="0"
     stroke="#ea1921"
     stroke-opacity="1"
     stroke-width="0.3"
     id="g3"
     transform="translate(-150.83336,-136.35336)">
    <path
       d="m 612,625 c 38.73,-13.08 79.53,-29.61 104.7,-65.3 31.98,-40.35 22.79,-96.24 22.29,-145.69 C 732.63,372.95 706.85,334.36 670.23,312.77 626.09,284.94 570.34,296.33 519,294 c 0.67,159.92 -1.33,320.5 1,480 21.68,-23.65 45.5,-47.48 64,-73 0,-34.33 0,-68.67 0,-103 2.55,-8.58 -5.93,-27.04 6,-28 27.63,-0.87 52.91,-12.25 76,-26 -2.68,33.91 -38.6,52.91 -54,81 M 584,505 c 0,-38.67 0,-77.33 0,-116 2.47,-9.85 -7.16,-32.6 10,-29 53.68,-4.62 98.31,59.78 68.75,106.75 -15.48,27.12 -47.5,40.51 -78.75,38.25 z"
       id="path3" />
  </g>
  <g
     fill="None"
     fill-opacity="0"
     stroke="#f8f9fb"
     stroke-opacity="1"
     stroke-width="0.3"
     id="g4"
     transform="translate(-150.83336,-136.35336)">
    <path
       d="m 584,505 c 31.25,2.26 63.27,-11.13 78.75,-38.25 C 692.31,419.78 647.68,355.38 594,360 c -17.16,-3.6 -7.53,19.15 -10,29 0,38.67 0,77.33 0,116 z"
       id="path4" />
  </g>
  <g
     fill="None"
     fill-opacity="0"
     stroke="#f8f9fb"
     stroke-opacity="1"
     stroke-width="0.3"
     id="g5"
     transform="translate(-150.83336,-136.35336)">
    <path
       d="m 416,455 c -43.68,-3.02 -87.92,31.79 -87.78,76.78 -0.13,45.15 44.33,80.6 88.78,75.22 -0.67,-50.58 1.33,-101.83 -1,-152 z"
       id="path5" />
  </g>
  <g
     fill="#ea1921"
     fill-opacity="1"
     stroke="None"
     id="g7">
    <path
       d="m 331.16664,535.64665 c 0,-145 0,-290 0,-435 0.86,-8.700004 1.15,-26.260004 -9.25,-13.250004 -16.83,17.200004 -33.68,33.360004 -50.5,49.500004 -9.44,6.46 -3.68,19.15 -5.25,28.75 0,22.33 0,44.67 0,67 0.74,10.58 2.27,24.86 -13,20 -27.79,0.42 -54.33,8.7 -76.92,24.08 -9.89,8.01 -6.03,-13.87 -4.06,-19.06 8.05,-31.8 36.42,-53.67 52.98,-81.02 -49.48,22.27 -114.11,53.64 -115,117 3.81,66.98 -16.170001,145.98 36.08,195.92 45.24,54.23 119.16,48.3 184.92,47.08 m -66,-218 c 2.33,50.17 0.33,101.42 1,152 -44.45,5.38 -88.91,-30.07 -88.78,-75.22 -0.14,-44.99 44.1,-79.8 87.78,-76.78 z"
       id="path7" />
  </g>
  <g
     fill="#ea1921"
     fill-opacity="1"
     stroke="None"
     id="g8"
     transform="translate(-150.83336,-136.35336)">
    <path
       d="m 612,625 c 38.73,-13.08 79.53,-29.61 104.7,-65.3 31.98,-40.35 22.79,-96.24 22.29,-145.69 C 732.63,372.95 706.85,334.36 670.23,312.77 626.09,284.94 570.34,296.33 519,294 c 0.67,159.92 -1.33,320.5 1,480 21.68,-23.65 45.5,-47.48 64,-73 0,-34.33 0,-68.67 0,-103 2.55,-8.58 -5.93,-27.04 6,-28 27.63,-0.87 52.91,-12.25 76,-26 -2.68,33.91 -38.6,52.91 -54,81 M 584,505 c 0,-38.67 0,-77.33 0,-116 2.47,-9.85 -7.16,-32.6 10,-29 53.68,-4.62 98.31,59.78 68.75,106.75 -15.48,27.12 -47.5,40.51 -78.75,38.25 z"
       id="path8" />
  </g>
</svg>
